<?xml version="1.0" encoding="UTF-8" standalone="no"?>
<svg
   width="100.00166"
   height="86.603378"
   version="1.1"
   id="magnetized-triangle-svg"
   sodipodi:docname="magnetized-triangle-flipped.svg"
   inkscape:version="1.3.2 (091e20ef0f, 2023-11-25)"
   inkscape:export-filename="magnetized-triangle-flipped.svg"
   inkscape:export-xdpi="96"
   inkscape:export-ydpi="96"
   xmlns:inkscape="http://www.inkscape.org/namespaces/inkscape"
   xmlns:sodipodi="http://sodipodi.sourceforge.net/DTD/sodipodi-0.dtd"
   xmlns="http://www.w3.org/2000/svg"
   xmlns:svg="http://www.w3.org/2000/svg">
  <defs
     id="defs2" />
  <sodipodi:namedview
     id="namedview2"
     pagecolor="#ffffff"
     bordercolor="#666666"
     borderopacity="1.0"
     inkscape:showpageshadow="2"
     inkscape:pageopacity="0.0"
     inkscape:pagecheckerboard="0"
     inkscape:deskcolor="#d1d1d1"
     inkscape:zoom="7.1198816"
     inkscape:cx="50.000832"
     inkscape:cy="43.259146"
     inkscape:window-width="1920"
     inkscape:window-height="1008"
     inkscape:window-x="0"
     inkscape:window-y="0"
     inkscape:window-maximized="1"
     inkscape:current-layer="svg2">
    <inkscape:page
       x="0"
       y="0"
       width="100.00166"
       height="86.603378"
       id="page2"
       margin="0"
       bleed="0" />
  </sodipodi:namedview>
  <g
     id="g2"
     transform="matrix(-1,0,0,1,99.99976,3.6542775e-7)">
    <g
       id="g1">
      <path
         d="m 0,0 m 45,81.60254 a 5,5 0 0 0 10,0 v -35 A 25,25 0 0 1 67.189111,26.830127 L 97.5,9.330127 a 5,5 0 0 0 -5,-8.66025402 L 62.189111,18.169873 a 25,25 0 0 1 -24.378222,0 L 7.5,0.66987298 A 5,5 0 0 0 2.5,9.330127 l 30.310889,17.5 A 25,25 0 0 1 45,46.60254 v 35"
         class="visible"
         id="triangle"/>
      <circle
         fill="#f07777"
         class="magnetization-vertex visible"
         id="magnetization-vertex-a"
         cx="94.999756"
         cy="5"
         r="5" />
      <circle
         fill="#f07777"
         class="magnetization-vertex visible"
         id="magnetization-vertex-b"
         cx="5"
         cy="5"
         r="5" />
      <circle
         fill="#8792e5"
         class="magnetization-vertex visible"
         id="magnetization-vertex-c"
         cx="50"
         cy="81.602539"
         r="5" />
    </g>
  </g>
</svg>
